<?xml version="1.0" encoding="UTF-8"?>
<svg version="1.1" xmlns="http://www.w3.org/2000/svg" width="3000" height="3600">
<path d="M0 0 C990 0 1980 0 3000 0 C3000 1188 3000 2376 3000 3600 C2010 3600 1020 3600 0 3600 C0 2412 0 1224 0 0 Z " fill="#FEFEFE" transform="translate(0,0)"/>
<path d="M0 0 C2.7559741 0.61030167 5.51743301 1.17051566 8.28662109 1.71728516 C31.17181477 6.36930924 53.09616849 14.72115886 74.27539062 24.44580078 C76.75609444 25.5836269 79.24663286 26.69682324 81.73974609 27.80712891 C108.12099378 39.73689432 132.60279816 56.19420903 154.86865234 74.63525391 C156.34591797 75.83408203 156.34591797 75.83408203 157.85302734 77.05712891 C165.5170519 83.3763861 172.63850968 90.19595251 179.68115234 97.19775391 C180.55231689 98.05973389 181.42348145 98.92171387 182.32104492 99.80981445 C188.2583628 105.77536495 193.6298262 112.05289859 198.86865234 118.63525391 C200.52551246 120.64371656 202.19651737 122.6394799 203.86865234 124.63525391 C202.32241913 128.92480412 199.0682199 131.11490436 195.55615234 133.76025391 C194.92805664 134.24324951 194.29996094 134.72624512 193.65283203 135.22387695 C191.72974287 136.7009659 189.79942368 138.16822905 187.86865234 139.63525391 C186.806666 140.45063431 185.7454189 141.2669788 184.68505859 142.08447266 C182.59704462 143.69370635 180.50724628 145.30039323 178.41552734 146.90478516 C174.21866194 150.12952932 170.04435032 153.38317847 165.86865234 156.63525391 C159.68722704 161.448817 153.48943316 166.23950297 147.27490234 171.01025391 C143.12623866 174.20153366 138.99832753 177.4194669 134.86865234 180.63525391 C128.69890475 185.4396497 122.51316238 190.22165169 116.31005859 194.98291016 C111.17486206 198.93294232 106.0680673 202.91974699 100.95849609 206.90283203 C99.86021484 207.75844727 99.86021484 207.75844727 98.73974609 208.63134766 C98.0893335 209.13851318 97.4389209 209.64567871 96.76879883 210.16821289 C96.14175049 210.65233643 95.51470215 211.13645996 94.86865234 211.63525391 C93.81943604 212.46972046 93.81943604 212.46972046 92.74902344 213.32104492 C90.86865234 214.63525391 90.86865234 214.63525391 88.91162109 214.66650391 C85.9125938 213.15265456 84.20604792 210.73102827 82.18115234 208.13525391 C53.81417818 173.40788374 14.67854708 150.62212423 -29.13134766 141.63525391 C-30.24582275 141.39766357 -30.24582275 141.39766357 -31.3828125 141.15527344 C-84.70914641 129.82662853 -142.1543661 140.72633008 -187.96728516 169.87353516 C-196.87924333 175.69713036 -205.04124723 182.33841932 -212.86572266 189.55712891 C-214.93312645 191.45343721 -217.04884858 193.26554996 -219.19384766 195.07275391 C-251.7085605 223.62858954 -272.14893964 269.50237466 -278.13134766 311.63525391 C-278.24559082 312.37533691 -278.35983398 313.11541992 -278.47753906 313.87792969 C-282.09825562 338.03213214 -281.87114624 364.59302053 -277.49414062 388.59179688 C-277.18020222 390.36007713 -276.93275329 392.13991931 -276.69775391 393.92041016 C-270.86376602 437.64524718 -242.72606238 485.46765667 -207.87353516 512.54150391 C-206.51615234 513.57791016 -206.51615234 513.57791016 -205.13134766 514.63525391 C-204.18517578 515.40869141 -203.23900391 516.18212891 -202.26416016 516.97900391 C-178.47989237 536.10324976 -150.51874324 548.49633372 -120.94384766 555.44775391 C-119.71831177 555.74020996 -119.71831177 555.74020996 -118.46801758 556.03857422 C-103.76468128 559.28910222 -88.76855882 560.04670301 -73.75634766 560.01025391 C-72.94106598 560.01004242 -72.1257843 560.00983093 -71.28579712 560.00961304 C-50.12860211 559.95534997 -29.14875833 557.83257644 -9.13134766 550.63525391 C-7.90109863 550.20188721 -7.90109863 550.20188721 -6.64599609 549.75976562 C5.29275953 545.5166852 16.71824977 540.6488876 27.86865234 534.63525391 C28.47257812 534.31588867 29.07650391 533.99652344 29.69873047 533.66748047 C41.97386319 527.1459024 52.46031228 519.06503933 62.66162109 509.65478516 C64.58347386 507.89620483 66.54512724 506.22705616 68.55615234 504.57275391 C75.95156789 498.26337841 81.77418483 490.15314581 87.86865234 482.63525391 C91.07872411 483.23996657 93.01758259 484.27719384 95.56396484 486.30322266 C96.27077393 486.85977539 96.97758301 487.41632813 97.70581055 487.98974609 C98.46079834 488.59463867 99.21578613 489.19953125 99.99365234 489.82275391 C101.61461397 491.10286915 103.23571161 492.38281217 104.85693359 493.66259766 C105.68660645 494.32114746 106.5162793 494.97969727 107.37109375 495.65820312 C111.2882694 498.75901333 115.23481206 501.82170889 119.18115234 504.88525391 C119.93178955 505.46911865 120.68242676 506.0529834 121.45581055 506.65454102 C127.9080446 511.67263067 134.3836734 516.65956674 140.86865234 521.63525391 C149.00821262 527.88044082 157.12041353 534.1591516 165.21508789 540.46240234 C169.58925945 543.86705295 173.97182605 547.25991251 178.36865234 550.63525391 C179.37283203 551.41126953 180.37701172 552.18728516 181.41162109 552.98681641 C184.14425957 555.0921433 186.90504645 557.15776421 189.66943359 559.22119141 C191.34017407 560.48399058 193.01074777 561.74701044 194.68115234 563.01025391 C195.48939453 563.60580078 196.29763672 564.20134766 197.13037109 564.81494141 C197.87544922 565.38212891 198.62052734 565.94931641 199.38818359 566.53369141 C200.05954346 567.03562012 200.73090332 567.53754883 201.42260742 568.0546875 C202.86865234 569.63525391 202.86865234 569.63525391 202.86865234 573.63525391 C200.23839649 577.58388491 197.00226559 581.07789856 193.86865234 584.63525391 C192.67369141 585.9984375 192.67369141 585.9984375 191.45458984 587.38916016 C179.82169344 600.33660987 167.64789031 612.97063625 153.86865234 623.63525391 C152.77856007 624.53414933 151.6915109 625.4367432 150.60693359 626.34228516 C107.61649797 661.9868168 52.67802146 687.47132506 -2.06884766 698.19775391 C-3.13079346 698.40754883 -4.19273926 698.61734375 -5.28686523 698.83349609 C-26.65475249 702.9403322 -48.01377207 704.85566737 -69.75634766 704.82275391 C-70.56259583 704.82181732 -71.36884399 704.82088074 -72.19952393 704.81991577 C-121.95393585 704.69568579 -170.51967333 696.05230448 -216.13134766 675.63525391 C-217.51 675.02109619 -217.51 675.02109619 -218.91650391 674.39453125 C-260.68547057 655.58556913 -304.8441901 627.26744353 -334.47900391 591.60009766 C-336.53234651 589.15841602 -338.70833885 586.84598412 -340.88134766 584.51025391 C-346.66070868 578.15557188 -351.95588012 571.48754564 -357.13134766 564.63525391 C-357.64600586 563.95575684 -358.16066406 563.27625977 -358.69091797 562.57617188 C-367.34860883 551.07034839 -375.00389554 539.1420029 -382.13134766 526.63525391 C-382.64084961 525.74257812 -383.15035156 524.84990234 -383.67529297 523.93017578 C-414.61773906 469.33955302 -429.3885159 409.47324646 -429.31884766 346.94775391 C-429.31857574 346.02460388 -429.31830383 345.10145386 -429.31802368 344.15032959 C-429.29962493 330.54791133 -428.96171406 317.13138152 -427.13134766 303.63525391 C-427.02951172 302.8215332 -426.92767578 302.0078125 -426.82275391 301.16943359 C-425.13627633 287.78692174 -422.33105407 274.73003422 -419.13134766 261.63525391 C-418.93814941 260.82733398 -418.74495117 260.01941406 -418.54589844 259.18701172 C-406.53699242 209.26885459 -381.78061768 162.99005908 -349.47607422 123.28857422 C-348.19304259 121.71110687 -346.92355339 120.12265351 -345.65478516 118.53369141 C-338.80721864 110.14390347 -331.19944016 102.49185646 -323.56884766 94.82275391 C-323.0381366 94.28677582 -322.50742554 93.75079773 -321.96063232 93.19857788 C-315.01935919 86.20413697 -307.86573876 79.76152743 -300.13134766 73.63525391 C-298.95730394 72.65894387 -297.78621635 71.67905508 -296.61962891 70.69384766 C-280.46809041 57.26693785 -262.54741057 45.94869101 -244.19677734 35.78320312 C-242.32329396 34.74193612 -240.46469028 33.67855781 -238.60791016 32.60791016 C-203.22854806 12.8132785 -163.93376697 1.89537576 -124.13134766 -4.36474609 C-122.55764404 -4.61683838 -122.55764404 -4.61683838 -120.95214844 -4.87402344 C-81.33918791 -10.96007771 -38.99538382 -8.78088686 0 0 Z " fill="#1A7181" transform="translate(996.13134765625,1309.36474609375)"/>
<path d="M0 0 C7.26 0 14.52 0 22 0 C22 20.46 22 40.92 22 62 C26.95 62.33 31.9 62.66 37 63 C40.60988966 64.12284359 43.64010534 65.17703727 47 66.75 C47.77988281 67.08515625 48.55976562 67.4203125 49.36328125 67.765625 C54.39027275 69.99608845 58.61638224 72.68609526 63 76 C66.5955819 78.42492733 67.53403368 79 72 79 C74.10721164 77.474156 74.10721164 77.474156 76.12597656 75.328125 C77.32676849 74.12687988 77.32676849 74.12687988 78.55181885 72.90136719 C79.40612488 72.02641602 80.26043091 71.15146484 81.140625 70.25 C82.02280701 69.3621582 82.90498901 68.47431641 83.81390381 67.55957031 C86.15564247 65.19921638 88.48833584 62.83059315 90.81713867 60.45751953 C93.19633163 58.03738289 95.58691179 55.62855325 97.9765625 53.21875 C102.66162387 48.48953404 107.33508904 43.74908894 112 39 C114.4375 39.8125 114.4375 39.8125 117 41 C117.33 41.99 117.66 42.98 118 44 C118.66 44 119.32 44 120 44 C120 44.66 120 45.32 120 46 C120.66 46 121.32 46 122 46 C122 46.66 122 47.32 122 48 C122.99 48.33 123.98 48.66 125 49 C125.66 50.65 126.32 52.3 127 54 C113.47 67.53 99.94 81.06 86 95 C87.72169928 98.44339857 89.59120852 101.47098989 91.6875 104.6875 C94.86304457 109.75624198 97.52841478 114.93613818 99.875 120.4375 C100.16076904 121.07969482 100.44653809 121.72188965 100.7409668 122.38354492 C103.59908115 129.36461572 103.85762548 135.00337835 105 143 C135.195 143.495 135.195 143.495 166 144 C166 151.26 166 158.52 166 166 C145.54 166 125.08 166 104 166 C103.67 170.95 103.34 175.9 103 181 C101.94060127 184.51635838 100.95787636 187.42550384 99.4375 190.6875 C99.086875 191.48422119 98.73625 192.28094238 98.375 193.10180664 C95.65612183 199.08079874 92.40778697 204.38766934 88.46875 209.65234375 C86.64641382 212.10363286 86.64641382 212.10363286 87 216 C88.525844 218.10721164 88.525844 218.10721164 90.671875 220.12597656 C91.47270508 220.92650452 92.27353516 221.72703247 93.09863281 222.55181885 C93.97358398 223.40612488 94.84853516 224.26043091 95.75 225.140625 C97.0817627 226.46389801 97.0817627 226.46389801 98.44042969 227.81390381 C100.80078362 230.15564247 103.16940685 232.48833584 105.54248047 234.81713867 C107.96261711 237.19633163 110.37144675 239.58691179 112.78125 241.9765625 C117.51046596 246.66162387 122.25091106 251.33508904 127 256 C126.1875 258.4375 126.1875 258.4375 125 261 C124.01 261.33 123.02 261.66 122 262 C122 262.66 122 263.32 122 264 C121.34 264 120.68 264 120 264 C120 264.66 120 265.32 120 266 C119.34 266 118.68 266 118 266 C117.67 266.99 117.34 267.98 117 269 C115.35 269.66 113.7 270.32 112 271 C98.47 257.47 84.94 243.94 71 230 C67.55660143 231.72169928 64.52901011 233.59120852 61.3125 235.6875 C56.25666549 238.84430309 51.08941162 241.55644755 45.625 243.9375 C44.99118408 244.23164795 44.35736816 244.5257959 43.7043457 244.82885742 C36.24945218 247.93283914 30.83730865 247.41084609 22 248 C22 268.46 22 288.92 22 310 C14.74 310 7.48 310 0 310 C-0.33 289.87 -0.66 269.74 -1 249 C-5.62 248.34 -10.24 247.68 -15 247 C-18.38336616 245.89639052 -21.41601749 244.81749013 -24.625 243.375 C-25.42623291 243.02888672 -26.22746582 242.68277344 -27.05297852 242.32617188 C-33.0769508 239.63619531 -38.36266618 236.42649437 -43.65234375 232.46875 C-46.10363286 230.64641382 -46.10363286 230.64641382 -50 231 C-52.10721164 232.525844 -52.10721164 232.525844 -54.12597656 234.671875 C-54.92650452 235.47270508 -55.72703247 236.27353516 -56.55181885 237.09863281 C-57.40612488 237.97358398 -58.26043091 238.84853516 -59.140625 239.75 C-60.46389801 241.0817627 -60.46389801 241.0817627 -61.81390381 242.44042969 C-64.15564247 244.80078362 -66.48833584 247.16940685 -68.81713867 249.54248047 C-71.19633163 251.96261711 -73.58691179 254.37144675 -75.9765625 256.78125 C-80.66162387 261.51046596 -85.33508904 266.25091106 -90 271 C-92.4375 270.1875 -92.4375 270.1875 -95 269 C-95.495 267.515 -95.495 267.515 -96 266 C-96.66 266 -97.32 266 -98 266 C-98 265.34 -98 264.68 -98 264 C-98.66 264 -99.32 264 -100 264 C-100 263.34 -100 262.68 -100 262 C-100.99 261.67 -101.98 261.34 -103 261 C-103.66 259.35 -104.32 257.7 -105 256 C-91.47 242.47 -77.94 228.94 -64 215 C-65.72169928 211.55660143 -67.59120852 208.52901011 -69.6875 205.3125 C-72.84430309 200.25666549 -75.55644755 195.08941162 -77.9375 189.625 C-78.23164795 188.99118408 -78.5257959 188.35736816 -78.82885742 187.7043457 C-81.93283914 180.24945218 -81.41084609 174.83730865 -82 166 C-102.46 166 -122.92 166 -144 166 C-144 158.74 -144 151.48 -144 144 C-123.54 144 -103.08 144 -82 144 C-81.67 139.05 -81.34 134.1 -81 129 C-79.87715641 125.39011034 -78.82296273 122.35989466 -77.25 119 C-76.91484375 118.22011719 -76.5796875 117.44023438 -76.234375 116.63671875 C-74.00391155 111.60972725 -71.31390474 107.38361776 -68 103 C-65.57507267 99.4044181 -65 98.46596632 -65 94 C-66.525844 91.89278836 -66.525844 91.89278836 -68.671875 89.87402344 C-69.47270508 89.07349548 -70.27353516 88.27296753 -71.09863281 87.44818115 C-71.97358398 86.59387512 -72.84853516 85.73956909 -73.75 84.859375 C-74.6378418 83.97719299 -75.52568359 83.09501099 -76.44042969 82.18609619 C-78.80078362 79.84435753 -81.16940685 77.51166416 -83.54248047 75.18286133 C-85.96261711 72.80366837 -88.37144675 70.41308821 -90.78125 68.0234375 C-95.51046596 63.33837613 -100.25091106 58.66491096 -105 54 C-104.1875 51.5625 -104.1875 51.5625 -103 49 C-102.01 48.67 -101.02 48.34 -100 48 C-100 47.34 -100 46.68 -100 46 C-99.34 46 -98.68 46 -98 46 C-98 45.34 -98 44.68 -98 44 C-97.34 44 -96.68 44 -96 44 C-95.67 43.01 -95.34 42.02 -95 41 C-93.35 40.34 -91.7 39.68 -90 39 C-76.47 52.53 -62.94 66.06 -49 80 C-45.55660143 78.27830072 -42.52901011 76.40879148 -39.3125 74.3125 C-34.24375802 71.13695543 -29.06386182 68.47158522 -23.5625 66.125 C-22.92030518 65.83923096 -22.27811035 65.55346191 -21.61645508 65.2590332 C-14.63538428 62.40091885 -8.99662165 62.14237452 -1 61 C-0.505 30.805 -0.505 30.805 0 0 Z " fill="#1A7181" transform="translate(914,1502)"/>
<path d="M0 0 C0.82242188 0.72832031 1.64484375 1.45664063 2.4921875 2.20703125 C3.12898438 2.76003906 3.76578125 3.31304688 4.421875 3.8828125 C16.30565841 14.91775424 24.91613667 31.48590214 28.4921875 47.20703125 C28.76933594 48.36589844 29.04648438 49.52476563 29.33203125 50.71875 C35.4475574 78.71758624 31.61858701 108.42724991 16.1171875 132.76953125 C1.44441996 154.61348413 -20.48884007 167.3809551 -45.9296875 172.95703125 C-61.39809775 175.57141045 -77.32768649 175.1373453 -92.5078125 171.20703125 C-93.64283203 170.91699219 -93.64283203 170.91699219 -94.80078125 170.62109375 C-112.39020133 165.97266626 -125.75706496 158.10845232 -138.5078125 145.20703125 C-139.24644531 144.47871094 -139.98507813 143.75039062 -140.74609375 143 C-154.12369131 128.99898041 -160.51509948 109.95993083 -163.5078125 91.20703125 C-163.69085937 90.07523438 -163.87390625 88.9434375 -164.0625 87.77734375 C-167.58307114 59.55101021 -159.56566385 31.86637729 -142.2578125 9.51953125 C-131.06278984 -3.64658087 -116.87798075 -12.54939923 -100.5078125 -17.79296875 C-99.7859375 -18.06753906 -99.0640625 -18.34210938 -98.3203125 -18.625 C-66.40168654 -30.53581079 -25.49533758 -21.77576283 0 0 Z " fill="#1B7181" transform="translate(2215.5078125,1580.79296875)"/>
<path d="M0 0 C111.64322917 0 111.64322917 0 131.5234375 19.25 C142.59300871 31.54176362 146.12214414 47.42863109 145.44921875 63.6015625 C144.19905311 79.57706853 135.55648513 94.27611466 124 105 C117.76970037 109.8087383 111.56052907 112.89296731 104 115 C109.52892525 125.00298976 115.48307868 134.72674537 121.4909668 144.44750977 C126.80424588 153.04544293 132.07143793 161.67036093 137.3125 170.3125 C137.67866425 170.91604309 138.04482849 171.51958618 138.42208862 172.14141846 C140.61699822 175.75957282 142.81099832 179.37826801 145 183 C145.56614014 183.90129639 146.13228027 184.80259277 146.71557617 185.73120117 C148 188 148 188 148 190 C141.70188412 190.22867356 135.40484122 190.3859904 129.10351562 190.49438477 C126.96150721 190.53957687 124.81977541 190.60094654 122.67871094 190.67895508 C119.59500985 190.78847371 116.51498181 190.83923294 113.4296875 190.87890625 C112.47633514 190.92535782 111.52298279 190.97180939 110.54074097 191.01966858 C107.76068057 191.02176727 105.63114992 190.90721809 103 190 C100.32625013 187.3247439 98.69180983 184.35928392 97 181 C96.42443359 180.03118896 95.84886719 179.06237793 95.25585938 178.06420898 C94.78986328 177.21673096 94.32386719 176.36925293 93.84375 175.49609375 C93.30266602 174.51922607 92.76158203 173.5423584 92.20410156 172.53588867 C91.64174805 171.51342041 91.07939453 170.49095215 90.5 169.4375 C84.94485642 159.4185627 79.25274207 149.49053878 73.44335938 139.61694336 C72.88970703 138.67471924 72.33605469 137.73249512 71.765625 136.76171875 C71.27868164 135.93631592 70.79173828 135.11091309 70.29003906 134.26049805 C69.12155892 132.21300418 68.05428431 130.10856861 67 128 C58.09 127.67 49.18 127.34 40 127 C40 147.79 40 168.58 40 190 C26.8 190 13.6 190 0 190 C0 127.3 0 64.6 0 0 Z " fill="#1C7281" transform="translate(1712,1561)"/>
<path d="M0 0 C10.89 0 21.78 0 33 0 C42.63229927 10.74908759 42.63229927 10.74908759 44.8828125 15.7265625 C47.88242983 21.93035997 51.52298503 27.38795617 55.5 33 C56.75366624 34.83082825 58.00366692 36.66417186 59.25 38.5 C60.178125 39.86125 60.178125 39.86125 61.125 41.25 C68 51.33333333 74.875 61.41666667 81.75 71.5 C82.3694751 72.40854736 82.9889502 73.31709473 83.62719727 74.25317383 C84.86993372 76.07588637 86.11261007 77.89863989 87.35522461 79.72143555 C90.59085048 84.46761486 93.82769855 89.21295428 97.06640625 93.95703125 C97.73542969 94.93736328 98.40445313 95.91769531 99.09375 96.92773438 C100.36288974 98.78737663 101.63239335 100.64677063 102.90234375 102.50585938 C103.48242188 103.35599609 104.0625 104.20613281 104.66015625 105.08203125 C105.16168213 105.81655518 105.66320801 106.5510791 106.17993164 107.30786133 C108.80601004 111.19220291 111.39914823 115.09872234 114 119 C114.33 79.73 114.66 40.46 115 0 C127.87 0 140.74 0 154 0 C154 62.7 154 125.4 154 190 C142.78 190 131.56 190 120 190 C109.67153064 177.99664372 109.67153064 177.99664372 107.265625 172.625 C104.2516278 166.32731298 100.6248786 160.8648454 96.5 155.25 C95.42285723 153.73737554 94.34981532 152.22182098 93.28125 150.703125 C92.75394287 149.95369629 92.22663574 149.20426758 91.68334961 148.43212891 C89.0887616 144.68342901 86.57439251 140.88229807 84.05322266 137.08398438 C80.71722312 132.07324167 77.32634564 127.10008838 73.9375 122.125 C73.206521 121.05072754 72.47554199 119.97645508 71.72241211 118.86962891 C68.12404697 113.58194324 64.52126538 108.29728689 60.9140625 103.015625 C60.26445557 102.06413574 59.61484863 101.11264648 58.94555664 100.13232422 C57.74761667 98.37820338 56.54896553 96.62456784 55.34936523 94.87158203 C50.16954991 87.28789519 45.09554868 79.64332302 40 72 C39.67 110.94 39.34 149.88 39 190 C26.13 190 13.26 190 0 190 C0 127.3 0 64.6 0 0 Z " fill="#1D7282" transform="translate(2280,1561)"/>
<path d="M0 0 C14.52 0 29.04 0 44 0 C46.97904134 6.55389095 49.87941404 12.98419447 52.4375 19.6875 C52.69853516 20.36232422 52.95957031 21.03714844 53.22851562 21.73242188 C54.81486079 25.84945416 56.36451089 29.97939448 57.9022522 34.11480713 C62.31013646 45.9457226 66.94356481 57.68776872 71.5625 69.4375 C72.4546914 71.71000245 73.34678031 73.98254514 74.23876953 76.25512695 C78.14703375 86.20979517 82.06104588 96.16217511 85.98828125 106.109375 C86.43238091 107.23467369 86.43238091 107.23467369 86.88545227 108.38270569 C88.21013278 111.73892313 89.53613779 115.09460021 90.86547852 118.44897461 C93.24348576 124.46635968 95.57159778 130.49855572 97.828125 136.5625 C100.17917941 142.87766106 102.61484511 149.15666193 105.0859375 155.42578125 C105.43623016 156.31581345 105.78652283 157.20584564 106.14743042 158.12284851 C107.59317901 161.79492263 109.03980835 165.46662023 110.49365234 169.13549805 C111.57066979 171.85547558 112.6413306 174.57788267 113.7109375 177.30078125 C114.04209564 178.13192947 114.37325378 178.9630777 114.71444702 179.81941223 C115.16589584 180.97288399 115.16589584 180.97288399 115.62646484 182.1496582 C115.8926059 182.82309769 116.15874695 183.49653717 116.43295288 184.19038391 C117 186 117 186 117 189 C103.47 189 89.94 189 76 189 C73.855 183.286875 71.71 177.57375 69.5 171.6875 C68.82130859 169.88756592 68.14261719 168.08763184 67.44335938 166.2331543 C66.90976703 164.80532117 66.37653896 163.37735184 65.84375 161.94921875 C65.56305664 161.20885376 65.28236328 160.46848877 64.99316406 159.70568848 C63.86506289 156.6700426 63 154.26638078 63 151 C36.27 151.33 9.54 151.66 -18 152 C-22.29 163.88 -26.58 175.76 -31 188 C-32 189 -32 189 -35.87719727 189.11352539 C-37.60694167 189.11336621 -39.33669081 189.10766849 -41.06640625 189.09765625 C-41.97502914 189.0962413 -42.88365204 189.09482635 -43.81980896 189.09336853 C-46.73407221 189.08775193 -49.64825981 189.07519665 -52.5625 189.0625 C-54.53320202 189.05748714 -56.50390524 189.05292386 -58.47460938 189.04882812 C-63.31643559 189.03777711 -68.15820495 189.02050138 -73 189 C-70.9601974 181.78224168 -68.49702897 174.81311742 -65.76171875 167.83203125 C-65.35846878 166.79414963 -64.95521881 165.75626801 -64.53974915 164.68693542 C-63.25925287 161.39404748 -61.97338986 158.10328489 -60.6875 154.8125 C-59.83625203 152.62447985 -58.98533785 150.43632981 -58.13476562 148.24804688 C-54.7741335 139.61111125 -51.40593236 130.97789739 -47.94921875 122.37890625 C-44.33087811 113.37363593 -40.84151755 104.31849011 -37.3404541 95.26712036 C-35.24717552 89.85569986 -33.15101266 84.44539714 -31.0546875 79.03515625 C-30.63106934 77.94180466 -30.20745117 76.84845306 -29.77099609 75.7219696 C-24.98139529 63.36470102 -20.16313637 51.01865591 -15.34033203 38.67431641 C-15.03608307 37.89552124 -14.73183411 37.11672607 -14.41836548 36.31433105 C-13.82363389 34.79220743 -13.22872851 33.27015169 -12.63363647 31.74816895 C-11.11620511 27.86553716 -9.60411404 23.98092251 -8.09960938 20.09326172 C-7.78699158 19.28630356 -7.47437378 18.4793454 -7.15228271 17.64793396 C-6.56156993 16.122358 -5.97184936 14.59639727 -5.38336182 13.06996155 C-5.11473328 12.37648117 -4.84610474 11.68300079 -4.56933594 10.96850586 C-4.33792908 10.36920761 -4.10652222 9.76990936 -3.86810303 9.15245056 C-2.62926532 6.08076802 -1.3046969 3.04429277 0 0 Z " fill="#1B7181" transform="translate(1569,1562)"/>
<path d="M0 0 C0.95390625 0.23976563 1.9078125 0.47953125 2.890625 0.7265625 C7.95733387 2.10701312 11.72298525 3.86352251 16 7 C17.20017683 7.70164184 18.40887667 8.38887566 19.625 9.0625 C22.27276516 10.58251333 24.71197178 11.98653517 27 14 C27 14.66 27 15.32 27 16 C27.598125 16.268125 28.19625 16.53625 28.8125 16.8125 C30.99847854 17.99917406 32.41332594 19.09599113 34 21 C34 21.66 34 22.32 34 23 C34.66 23 35.32 23 36 23 C39.79942109 27.16983819 42.65698161 31.88795988 45 37 C45.31710937 37.56976562 45.63421875 38.13953125 45.9609375 38.7265625 C54.88642096 55.03402475 54.56530363 74.49268882 50 92 C49.76023437 92.95390625 49.52046875 93.9078125 49.2734375 94.890625 C47.89298688 99.95733387 46.13647749 103.72298525 43 108 C42.29835816 109.20017683 41.61112434 110.40887667 40.9375 111.625 C39.41748667 114.27276516 38.01346483 116.71197178 36 119 C35.34 119 34.68 119 34 119 C33.5978125 119.8971875 33.5978125 119.8971875 33.1875 120.8125 C32.00082594 122.99847854 30.90400887 124.41332594 29 126 C28.34 126 27.68 126 27 126 C27 126.66 27 127.32 27 128 C22.83016181 131.79942109 18.11204012 134.65698161 13 137 C12.43023438 137.31710937 11.86046875 137.63421875 11.2734375 137.9609375 C-5.03402475 146.88642096 -24.49268882 146.56530363 -42 142 C-42.95390625 141.76023437 -43.9078125 141.52046875 -44.890625 141.2734375 C-49.95733387 139.89298688 -53.72298525 138.13647749 -58 135 C-59.20017683 134.29835816 -60.40887667 133.61112434 -61.625 132.9375 C-64.27276516 131.41748667 -66.71197178 130.01346483 -69 128 C-69 127.34 -69 126.68 -69 126 C-69.598125 125.731875 -70.19625 125.46375 -70.8125 125.1875 C-72.99847854 124.00082594 -74.41332594 122.90400887 -76 121 C-76 120.34 -76 119.68 -76 119 C-76.66 119 -77.32 119 -78 119 C-81.79942109 114.83016181 -84.65698161 110.11204012 -87 105 C-87.47566406 104.14535156 -87.47566406 104.14535156 -87.9609375 103.2734375 C-96.88642096 86.96597525 -96.56530363 67.50731118 -92 50 C-91.76023437 49.04609375 -91.52046875 48.0921875 -91.2734375 47.109375 C-89.89298688 42.04266613 -88.13647749 38.27701475 -85 34 C-84.29835816 32.79982317 -83.61112434 31.59112333 -82.9375 30.375 C-81.41748667 27.72723484 -80.01346483 25.28802822 -78 23 C-77.34 23 -76.68 23 -76 23 C-75.731875 22.401875 -75.46375 21.80375 -75.1875 21.1875 C-74.00082594 19.00152146 -72.90400887 17.58667406 -71 16 C-70.34 16 -69.68 16 -69 16 C-69 15.34 -69 14.68 -69 14 C-64.83016181 10.20057891 -60.11204012 7.34301839 -55 5 C-54.43023438 4.68289063 -53.86046875 4.36578125 -53.2734375 4.0390625 C-36.96597525 -4.88642096 -17.50731118 -4.56530363 0 0 Z " fill="#FEFEFE" transform="translate(946,1586)"/>
<path d="M0 0 C7.31760339 6.4262914 15.38773949 13.64056928 19.80859375 22.42578125 C18.45322858 26.49187677 16.67054746 26.89865852 12.9453125 28.9296875 C12.35692093 29.25363998 11.76852936 29.57759247 11.16230774 29.91136169 C9.27825666 30.94584753 7.38736114 31.96705935 5.49609375 32.98828125 C4.23326264 33.67949638 2.97088699 34.37154435 1.70898438 35.06445312 C-7.78579299 40.26409546 -7.78579299 40.26409546 -12.19140625 42.42578125 C-12.71347656 41.71292969 -13.23554687 41.00007813 -13.7734375 40.265625 C-21.82816774 29.78460124 -32.16474673 22.28348136 -45.375 19.8359375 C-62.62597054 17.98194374 -80.11910662 18.46829111 -94.21484375 29.671875 C-106.09114224 40.21032959 -112.29607127 53.68042442 -113.40722656 69.49804688 C-113.54609668 72.89287168 -113.6083721 76.2782257 -113.62890625 79.67578125 C-113.63897705 80.75214844 -113.64904785 81.82851562 -113.65942383 82.9375 C-113.51048019 96.74594807 -109.66487782 111.30434981 -101.19140625 122.42578125 C-100.51078125 123.39515625 -99.83015625 124.36453125 -99.12890625 125.36328125 C-92.15002111 133.44521207 -82.22874197 136.86481493 -72.19140625 139.42578125 C-71.56105469 139.62042969 -70.93070313 139.81507813 -70.28125 140.015625 C-53.94611931 143.22158523 -38.1428821 138.75061962 -24.19140625 130.42578125 C-18.9712366 126.9144945 -15.63741231 122.64700255 -12.19140625 117.42578125 C-7.88886554 118.05788664 -4.49421661 119.58091457 -0.61328125 121.515625 C-0.0012384 121.82021133 0.61080444 122.12479767 1.24139404 122.43861389 C2.52698884 123.08039502 3.8110876 123.72518081 5.09375 124.37280273 C7.06201976 125.3650083 9.0364054 126.34417166 11.01171875 127.32226562 C12.26210451 127.94844903 13.51211812 128.57537625 14.76171875 129.203125 C15.89770508 129.77281006 17.03369141 130.34249512 18.20410156 130.92944336 C20.80859375 132.42578125 20.80859375 132.42578125 21.80859375 134.42578125 C7.70235376 156.59808932 -10.03793021 169.83120043 -35.875 176.07421875 C-41.61195436 177.30931969 -47.33368603 178.09576884 -53.19140625 178.42578125 C-53.83158691 178.46509766 -54.47176758 178.50441406 -55.13134766 178.54492188 C-80.22825979 179.8950179 -103.30568119 172.60098704 -123.19140625 157.42578125 C-124.16787109 156.72582031 -124.16787109 156.72582031 -125.1640625 156.01171875 C-143.45383026 141.91605849 -153.28643177 116.63187267 -156.19140625 94.42578125 C-157.79576289 71.87400683 -156.27199595 49.53499959 -145.19140625 29.42578125 C-144.67964844 28.42675781 -144.16789062 27.42773438 -143.640625 26.3984375 C-133.00905596 6.68309349 -114.3271489 -7.69373483 -93.12890625 -14.44921875 C-63.51406483 -23.20993623 -24.65238181 -20.59766417 0 0 Z " fill="#1B7181" transform="translate(1310.19140625,1576.57421875)"/>
<path d="M0 0 C3.57678459 2.78420164 6.81688283 5.77687956 10 9 C10.56332031 9.54140625 11.12664062 10.0828125 11.70703125 10.640625 C24.4337352 23.93818375 26.50292745 42.32450518 26.21484375 59.81640625 C26.0085314 65.48679222 24.82713367 70.63743697 23 76 C22.52433594 77.45792969 22.52433594 77.45792969 22.0390625 78.9453125 C16.4659557 94.08360971 6.15494857 104.84083629 -8.4375 111.58984375 C-27.41829567 119.16898091 -47.60624877 119.58756982 -66.5234375 111.4921875 C-82.82249784 103.32366075 -91.95552461 90.93358647 -98 74 C-98.55300781 72.46472656 -98.55300781 72.46472656 -99.1171875 70.8984375 C-100.33264493 65.53106354 -100.34108867 60.36198297 -100.3125 54.875 C-100.30686035 53.75714111 -100.3012207 52.63928223 -100.29541016 51.48754883 C-100.04138831 34.22789585 -95.08314327 19.74965117 -83 7 C-60.83134467 -13.67863095 -25.55000116 -16.40426211 0 0 Z " fill="#1B7181" transform="translate(1823,1784)"/>
<path d="M0 0 C15.18 0 30.36 0 46 0 C55.875 19.8125 55.875 19.8125 58.92138672 25.93286133 C63.70987605 35.53423582 68.5680425 45.09107678 73.60372925 54.56550598 C77.54059033 61.97501861 81.28528535 69.47718403 85 77 C91.38556012 65.10748263 97.48545005 53.08301173 103.5 41 C108.21851521 31.52385624 112.93838277 22.05266478 117.875 12.6875 C118.26107422 11.95466797 118.64714844 11.22183594 119.04492188 10.46679688 C120.01705817 8.63762238 121.00750204 6.81820684 122 5 C122.32476318 4.11393066 122.64952637 3.22786133 122.98413086 2.31494141 C125 0 125 0 127.00762939 -0.43345642 C129.7308381 -0.58175314 132.41035975 -0.56090197 135.13671875 -0.48828125 C136.62858452 -0.47766914 136.62858452 -0.47766914 138.15058899 -0.46684265 C141.33032133 -0.43883158 144.50829906 -0.37607922 147.6875 -0.3125 C149.84177146 -0.28742588 151.9960705 -0.26461117 154.15039062 -0.24414062 C159.43419341 -0.1889834 164.71697138 -0.10529098 170 0 C168.70803074 4.24459359 167.08904687 7.89043857 164.8671875 11.7265625 C164.23425781 12.82613281 163.60132813 13.92570312 162.94921875 15.05859375 C162.25785576 16.24742099 161.56644827 17.43622235 160.875 18.625 C160.15437198 19.87336563 159.43433046 21.12206998 158.71484375 22.37109375 C157.22069053 24.96388176 155.72403245 27.55519882 154.22558594 30.14550781 C150.79337977 36.08347387 147.39878237 42.04285838 144 48 C143.00300309 49.74492823 142.00563712 51.48964513 141.00823975 53.23434448 C138.31942397 57.93784459 135.63286841 62.6426205 132.95037842 67.34973145 C131.58585128 69.74391642 130.22043921 72.13759624 128.85498047 74.53125 C127.93763561 76.14014581 127.02150749 77.74973519 126.10546875 79.359375 C125.51121094 80.4009375 124.91695312 81.4425 124.3046875 82.515625 C123.67353027 83.66482422 123.04237305 84.81402344 122.39208984 85.99804688 C120.61279108 89.11810374 118.5833249 91.94948483 116.43994141 94.83007812 C103.77142884 112.71444381 104.09208846 129.27945313 104.57513428 150.4151001 C104.67426444 155.5537309 104.66598277 160.69328819 104.67672729 165.8327179 C104.70439806 173.55879139 104.86421143 181.27169048 105 189 C91.8 189 78.6 189 65 189 C65.10183594 183.89917969 65.20367188 178.79835938 65.30859375 173.54296875 C65.3397546 170.24765095 65.36631259 166.95349758 65.37695312 163.65820312 C65.39414387 158.46383804 65.42536164 153.27317212 65.55883789 148.08032227 C66.1242562 125.14988083 64.23421574 109.01208094 50.95237732 89.87736511 C47.67031911 85.04034939 44.83542177 79.94764989 41.9375 74.875 C40.78744003 72.91142103 39.63537221 70.94901537 38.48046875 68.98828125 C34.82051006 62.72573121 31.27882243 56.39962505 27.75 50.0625 C22.71261723 41.01876961 17.55661302 32.06049711 12.27685547 23.15673828 C9.79610033 18.96649145 7.33121413 14.76717207 4.875 10.5625 C4.14567261 9.3262085 4.14567261 9.3262085 3.40161133 8.06494141 C2.95712646 7.3022998 2.5126416 6.5396582 2.0546875 5.75390625 C1.65749512 5.07658447 1.26030273 4.3992627 0.85107422 3.70141602 C0 2 0 2 0 0 Z " fill="#1A7181" transform="translate(1872,1562)"/>
<path d="M0 0 C1.23169922 0.56074219 1.23169922 0.56074219 2.48828125 1.1328125 C15.32932782 7.65045294 23.26701726 18.32169039 28 31.7421875 C34.08457467 51.5645909 32.43507223 73.31694457 23.375 91.9375 C16.02342267 104.08439554 5.63971096 111.63050523 -7.73828125 115.8671875 C-22.5766744 119.15460085 -40.45471201 118.03651324 -54 111 C-63.29878763 105.04877592 -70.17063045 97.43943761 -74.875 87.5 C-75.30449951 86.59314453 -75.30449951 86.59314453 -75.74267578 85.66796875 C-79.8442229 76.45366926 -80.31654009 67.62819328 -80.25 57.625 C-80.25773437 56.47 -80.26546875 55.315 -80.2734375 54.125 C-80.23706796 38.01329348 -76.88396443 24.25928019 -66 12 C-65.50113281 11.38511719 -65.00226562 10.77023437 -64.48828125 10.13671875 C-49.78205874 -6.56984637 -19.40666948 -8.98402551 0 0 Z " fill="#FEFEFE" transform="translate(2174,1600)"/>
<path d="M0 0 C13.2 0 26.4 0 40 0 C40 50.16 40 100.32 40 152 C64.75 152 89.5 152 115 152 C115 164.21 115 176.42 115 189 C77.05 189 39.1 189 0 189 C0 126.63 0 64.26 0 0 Z " fill="#1A7181" transform="translate(1362,1562)"/>
<path d="M0 0 C71.4682377 0 71.4682377 0 83.6875 11.125 C91.83110358 19.77175529 93.50276671 29.65518581 93.27734375 41.140625 C92.58857151 50.72523021 88.19250798 60.25404771 81.046875 66.78515625 C71.75798526 74 71.75798526 74 67 74 C69.39203366 78.06474566 71.7882214 82.12702732 74.1875 86.1875 C74.72431396 87.096138 74.72431396 87.096138 75.27197266 88.02313232 C80.79351619 97.36065535 86.41866366 106.62614325 92.18823242 115.81323242 C92.69330322 116.61994385 93.19837402 117.42665527 93.71875 118.2578125 C94.38293945 119.31186279 94.38293945 119.31186279 95.06054688 120.38720703 C96 122 96 122 96 123 C70.48192866 125.65263112 70.48192866 125.65263112 63.80712891 121.70214844 C60.37950343 118.03449316 58.73424666 113.41250344 57.0390625 108.75341797 C55.04850446 103.47862624 52.5097222 98.50951713 49.9375 93.5 C49.49720459 92.47898193 49.05690918 91.45796387 48.60327148 90.40600586 C47.05339253 87.01246046 47.05339253 87.01246046 43 83 C37.39 82.67 31.78 82.34 26 82 C26 95.53 26 109.06 26 123 C17.42 123 8.84 123 0 123 C0 82.41 0 41.82 0 0 Z " fill="#1B7181" transform="translate(1601,1776)"/>
<path d="M0 0 C6.18560871 4.29225733 10.15790077 9.58194787 14 16 C10.63101821 19.82564684 6.8900028 21.93143538 2.4375 24.25 C1.76525391 24.61351562 1.09300781 24.97703125 0.40039062 25.3515625 C-4.61272321 28 -4.61272321 28 -8 28 C-9.54296875 26.390625 -9.54296875 26.390625 -11.1875 24.25 C-16.5625959 17.84514889 -23.72108686 14.73062632 -32.05615234 13.76074219 C-43.29412379 13.06941107 -52.98584358 13.80693947 -62.33203125 20.7265625 C-68.80405747 26.56219282 -73.46128165 35.23418733 -74.16113281 44.02368164 C-74.43493032 57.95392591 -74.27134671 71.73609169 -64.4375 82.75 C-55.57498355 90.95603375 -45.11741669 92.57277172 -33.48046875 92.3359375 C-25.31020374 91.91462829 -17.71798462 89.31435629 -11.9375 83.375 C-8.2127128 78.20582029 -8.2127128 78.20582029 -5 68 C-16.22 68 -27.44 68 -39 68 C-39 61.07 -39 54.14 -39 47 C-18.87 47 1.26 47 22 47 C25.78894738 62.15578951 21.83082546 77.34175976 14.1640625 90.546875 C6.63161806 102.87513225 -4.25968406 109.95647606 -18 114 C-19.21816406 114.35964844 -20.43632813 114.71929688 -21.69140625 115.08984375 C-26.54022903 116.27338772 -31.28013219 116.30278934 -36.25 116.25 C-37.17804443 116.24250732 -38.10608887 116.23501465 -39.06225586 116.22729492 C-56.01068782 115.96212847 -71.73701247 111.46979133 -84.4765625 99.71484375 C-99.29055304 84.08335875 -102.77499682 66.49014993 -102.37109375 45.6875 C-102.15493603 40.8397337 -101.39734721 36.64263547 -100 32 C-99.72800781 31.07574219 -99.45601562 30.15148438 -99.17578125 29.19921875 C-93.98918087 14.10879322 -84.37129902 2.17691847 -70 -5 C-64.77688998 -7.02189035 -59.4029303 -8.54235325 -54 -10 C-53.03163208 -10.26937378 -53.03163208 -10.26937378 -52.04370117 -10.54418945 C-34.31994356 -14.49715271 -15.1541632 -9.14275407 0 0 Z " fill="#1C7281" transform="translate(1546,1785)"/>
<path d="M0 0 C67.86419753 0 67.86419753 0 79 11 C79.54914062 11.51175781 80.09828125 12.02351563 80.6640625 12.55078125 C88.88289802 21.03278145 90.33667837 33.01360207 90.20703125 44.3046875 C89.59831492 55.16969972 86.17501983 65.39587823 77.9296875 72.87890625 C72.45565114 76.79313655 66.36886529 78.96405126 60 81 C59.01 81.33 58.02 81.66 57 82 C54.64319787 82.08397157 52.28405919 82.10728187 49.92578125 82.09765625 C48.67450439 82.09515869 47.42322754 82.09266113 46.1340332 82.09008789 C43.74737427 82.07643188 43.74737427 82.07643188 41.3125 82.0625 C36.259375 82.041875 31.20625 82.02125 26 82 C26 95.53 26 109.06 26 123 C17.42 123 8.84 123 0 123 C0 82.41 0 41.82 0 0 Z " fill="#1C7282" transform="translate(2016,1776)"/>
<path d="M0 0 C8.58 0 17.16 0 26 0 C26.01458252 2.37106934 26.02916504 4.74213867 26.04418945 7.18505859 C26.09468757 15.04816544 26.16130897 22.91107742 26.23571491 30.77399254 C26.28030648 35.53795023 26.31958692 40.30182462 26.34643555 45.06591797 C26.3725809 49.66967545 26.41306157 54.27311039 26.46318626 58.87666702 C26.47977939 60.62674551 26.49134044 62.3768797 26.49761391 64.1270256 C26.27207469 81.17527433 26.27207469 81.17527433 34.35546875 95.59375 C39.90531051 100.33945792 45.61587842 100.59369317 52.703125 100.4140625 C59.23537499 99.59366144 64.13790785 97.09485366 68.5 92.1875 C71.52175055 85.76628009 72.29813035 79.64435554 72.31884766 72.65625 C72.32889328 71.86504257 72.3389389 71.07383514 72.34928894 70.25865173 C72.37990473 67.67244114 72.3970953 65.08633299 72.4140625 62.5 C72.43279158 60.69538505 72.45236627 58.89077869 72.4727478 57.08618164 C72.52389127 52.3582264 72.56361175 47.63024282 72.60089111 42.90216064 C72.64104275 38.06881808 72.69208398 33.23559158 72.7421875 28.40234375 C72.83873606 18.9349696 72.92220014 9.46754681 73 0 C81.58 0 90.16 0 99 0 C99.09076921 10.97120471 99.16398449 21.94215549 99.20724869 32.91365242 C99.22802492 38.00947267 99.25615812 43.10502023 99.30175781 48.20068359 C99.34557399 53.12850457 99.36921181 58.05606509 99.37950897 62.98406601 C99.38683669 64.85372892 99.40114385 66.72337939 99.42292023 68.59292984 C99.60979509 85.31865393 97.98814591 100.56515704 85.81640625 113.28125 C73.38351189 124.22383025 57.44618364 125.91032968 41.59179688 125.21777344 C29.31397947 124.1861407 18.33397555 118.82862887 9.94921875 109.7890625 C-0.15467662 96.76434085 -0.71509621 82.22512447 -0.48828125 66.50390625 C-0.47893139 64.57479275 -0.47182559 62.6456672 -0.46684265 60.71653748 C-0.4479436 55.69072467 -0.3989947 50.6656587 -0.34332275 45.64013672 C-0.29175692 40.49131364 -0.26924966 35.3423674 -0.24414062 30.19335938 C-0.19085544 20.12852885 -0.10306407 10.06444397 0 0 Z " fill="#1B7181" transform="translate(1881,1776)"/>
<path d="M0 0 C8.09539926 7.20105039 12.52234819 16.6676257 13.22265625 27.41796875 C13.53539976 40.75715954 11.4341544 52.54547147 2.40625 62.8125 C-5.77170439 70.52755131 -16.50440463 72.40026906 -27.33203125 72.265625 C-36.55046043 71.59804972 -43.15748027 68.00946171 -49.765625 61.6328125 C-59.03722128 50.70788961 -59.54828744 38.75047182 -59 25 C-58.07743875 15.28674798 -54.15683415 7.2676063 -47.0234375 0.5703125 C-33.07744323 -10.25264059 -14.45144262 -9.31210413 0 0 Z " fill="#FDFDFD" transform="translate(1809,1805)"/>
<path d="M0 0 C9.9 -0.061875 9.9 -0.061875 20 -0.125 C22.06765625 -0.14320801 24.1353125 -0.16141602 26.265625 -0.18017578 C27.9270807 -0.18602375 29.5885393 -0.19111859 31.25 -0.1953125 C32.51650391 -0.2106604 32.51650391 -0.2106604 33.80859375 -0.22631836 C41.81541269 -0.22864592 50.60308201 0.76086615 56.6328125 6.57421875 C62.8776462 13.528007 63.54443984 19.90627673 63.3046875 28.9765625 C62.88864135 36.33817249 60.65253901 41.79997744 55.3125 46.9375 C48.7022176 52.69849558 40.33699722 53.44279779 31.93359375 53.29296875 C30.70872253 53.28843689 30.70872253 53.28843689 29.45910645 53.28381348 C26.45177298 53.2682923 23.44462179 53.22641043 20.4375 53.1875 C13.693125 53.125625 6.94875 53.06375 0 53 C0 35.51 0 18.02 0 0 Z " fill="#FCFCFD" transform="translate(1752,1598)"/>
<path d="M0 0 C2.52745558 2.52745558 3.12209305 4.73688434 4.30664062 8.11450195 C4.52805222 8.74074463 4.74946381 9.3669873 4.97758484 10.01220703 C5.70920647 12.08570815 6.43269108 14.16195432 7.15625 16.23828125 C7.66373456 17.68094774 8.17175809 19.12342474 8.68029785 20.5657196 C10.01942932 24.36787542 11.35183311 28.17235409 12.68267822 31.97741699 C14.29665197 36.58852949 15.91766032 41.19717219 17.53850555 45.80587292 C18.80063099 49.39462959 20.06141748 52.9838351 21.31799316 56.57453918 C21.77644648 57.88213167 22.23490178 59.18972346 22.69335938 60.49731445 C23.09147827 61.634897 23.48959717 62.77247955 23.89978027 63.9445343 C24.59282896 65.86922846 25.33493161 67.77761362 26.14416504 69.65641785 C27 72 27 72 27 76 C9.18 76 -8.64 76 -27 76 C-26.2062763 71.23765781 -25.13338854 67.16731772 -23.48046875 62.69921875 C-23.22560196 61.99729401 -22.97073517 61.29536926 -22.70814514 60.57217407 C-21.87288546 58.27544184 -21.03031916 55.98146776 -20.1875 53.6875 C-19.60533829 52.09220734 -19.02363841 50.49674608 -18.44238281 48.90112305 C-17.23855412 45.59824271 -16.03196537 42.29638801 -14.82373047 38.99511719 C-13.03702561 34.10833584 -11.26869 29.21504488 -9.50390625 24.3203125 C-8.68317338 22.04772658 -7.86212585 19.77525465 -7.04092407 17.50283813 C-6.51412005 16.04393838 -5.98805655 14.58477101 -5.46273804 13.12533569 C-4.73303133 11.09950863 -3.99979215 9.0749953 -3.265625 7.05078125 C-2.85086914 5.90262939 -2.43611328 4.75447754 -2.00878906 3.5715332 C-1 1 -1 1 0 0 Z " fill="#F9FAFB" transform="translate(1591,1602)"/>
<path d="M0 0 C6.1565625 -0.0928125 6.1565625 -0.0928125 12.4375 -0.1875 C13.71294678 -0.21481201 14.98839355 -0.24212402 16.30249023 -0.27026367 C24.53437198 -0.32995685 31.36497969 0.25518875 38.0625 5.3125 C41.66123419 10.27325511 40.75103159 17.24436698 40 23 C38.97678561 25.71698189 38.04253405 26.84074972 36 29 C35.525625 29.5775 35.05125 30.155 34.5625 30.75 C30.52313865 33.98148908 26.40925111 34.24118038 21.38671875 34.1953125 C20.26225342 34.19031738 19.13778809 34.18532227 17.97924805 34.18017578 C16.56297119 34.16196777 15.14669434 34.14375977 13.6875 34.125 C9.170625 34.08375 4.65375 34.0425 0 34 C0 22.78 0 11.56 0 0 Z " fill="#FDFEFE" transform="translate(1627,1800)"/>
<path d="M0 0 C6.249375 -0.0928125 6.249375 -0.0928125 12.625 -0.1875 C13.92775879 -0.21481201 15.23051758 -0.24212402 16.57275391 -0.27026367 C23.86055756 -0.32273044 28.63722723 0.09165598 34.3125 5 C38.60654158 10.08923447 37.5256174 17.73579266 37 24 C35.56906462 28.07779513 32.65067072 30.76249214 29 33 C25.76248322 34.07917226 23.42248229 34.11425601 20.01953125 34.09765625 C18.97128174 34.09515869 17.92303223 34.09266113 16.84301758 34.09008789 C15.51294678 34.08098389 14.18287598 34.07187988 12.8125 34.0625 C8.584375 34.041875 4.35625 34.02125 0 34 C0 22.78 0 11.56 0 0 Z " fill="#FEFEFE" transform="translate(2042,1800)"/>
</svg>
